<mxfile host="app.diagrams.net" modified="2023-04-13T15:39:55.773Z" agent="Mozilla/5.0 (Windows NT 10.0; Win64; x64) AppleWebKit/537.36 (KHTML, like Gecko) Chrome/112.0.0.0 Safari/537.36 Edg/112.0.1722.39" etag="mUqVyzdjbBu5bCY8mlQx" version="21.1.5" type="github">
  <diagram name="Страница 1" id="2GnRgFlwrSrR2_h2t6gU">
    <mxGraphModel dx="787" dy="455" grid="1" gridSize="10" guides="1" tooltips="1" connect="1" arrows="1" fold="1" page="1" pageScale="1" pageWidth="827" pageHeight="1169" math="0" shadow="0">
      <root>
        <mxCell id="0" />
        <mxCell id="1" parent="0" />
        <mxCell id="hCjjzOcsvKE_SeXPQG_O-2" value="Chain Of responsibility" style="text;html=1;align=center;verticalAlign=middle;resizable=0;points=[];autosize=1;strokeColor=none;fillColor=none;fontSize=25;" vertex="1" parent="1">
          <mxGeometry width="270" height="40" as="geometry" />
        </mxCell>
        <mxCell id="hCjjzOcsvKE_SeXPQG_O-3" value="Client" style="swimlane;fontStyle=1;align=center;verticalAlign=top;childLayout=stackLayout;horizontal=1;startSize=26;horizontalStack=0;resizeParent=1;resizeParentMax=0;resizeLast=0;collapsible=1;marginBottom=0;whiteSpace=wrap;html=1;" vertex="1" parent="1">
          <mxGeometry x="40" y="96" width="160" height="34" as="geometry" />
        </mxCell>
        <mxCell id="hCjjzOcsvKE_SeXPQG_O-5" value="" style="line;strokeWidth=1;fillColor=none;align=left;verticalAlign=middle;spacingTop=-1;spacingLeft=3;spacingRight=3;rotatable=0;labelPosition=right;points=[];portConstraint=eastwest;strokeColor=inherit;" vertex="1" parent="hCjjzOcsvKE_SeXPQG_O-3">
          <mxGeometry y="26" width="160" height="8" as="geometry" />
        </mxCell>
        <mxCell id="hCjjzOcsvKE_SeXPQG_O-7" value="ConcreateHandle1" style="swimlane;fontStyle=1;align=center;verticalAlign=top;childLayout=stackLayout;horizontal=1;startSize=26;horizontalStack=0;resizeParent=1;resizeParentMax=0;resizeLast=0;collapsible=1;marginBottom=0;whiteSpace=wrap;html=1;" vertex="1" parent="1">
          <mxGeometry x="220" y="240" width="160" height="60" as="geometry" />
        </mxCell>
        <mxCell id="hCjjzOcsvKE_SeXPQG_O-9" value="" style="line;strokeWidth=1;fillColor=none;align=left;verticalAlign=middle;spacingTop=-1;spacingLeft=3;spacingRight=3;rotatable=0;labelPosition=right;points=[];portConstraint=eastwest;strokeColor=inherit;" vertex="1" parent="hCjjzOcsvKE_SeXPQG_O-7">
          <mxGeometry y="26" width="160" height="8" as="geometry" />
        </mxCell>
        <mxCell id="hCjjzOcsvKE_SeXPQG_O-10" value="+ HandleRequest()" style="text;strokeColor=none;fillColor=none;align=left;verticalAlign=top;spacingLeft=4;spacingRight=4;overflow=hidden;rotatable=0;points=[[0,0.5],[1,0.5]];portConstraint=eastwest;whiteSpace=wrap;html=1;" vertex="1" parent="hCjjzOcsvKE_SeXPQG_O-7">
          <mxGeometry y="34" width="160" height="26" as="geometry" />
        </mxCell>
        <mxCell id="hCjjzOcsvKE_SeXPQG_O-11" value="Handler" style="swimlane;fontStyle=1;align=center;verticalAlign=top;childLayout=stackLayout;horizontal=1;startSize=26;horizontalStack=0;resizeParent=1;resizeParentMax=0;resizeLast=0;collapsible=1;marginBottom=0;whiteSpace=wrap;html=1;" vertex="1" parent="1">
          <mxGeometry x="380" y="96" width="160" height="60" as="geometry" />
        </mxCell>
        <mxCell id="hCjjzOcsvKE_SeXPQG_O-13" value="" style="line;strokeWidth=1;fillColor=none;align=left;verticalAlign=middle;spacingTop=-1;spacingLeft=3;spacingRight=3;rotatable=0;labelPosition=right;points=[];portConstraint=eastwest;strokeColor=inherit;" vertex="1" parent="hCjjzOcsvKE_SeXPQG_O-11">
          <mxGeometry y="26" width="160" height="8" as="geometry" />
        </mxCell>
        <mxCell id="hCjjzOcsvKE_SeXPQG_O-14" value="+ HandleRequest()" style="text;strokeColor=none;fillColor=none;align=left;verticalAlign=top;spacingLeft=4;spacingRight=4;overflow=hidden;rotatable=0;points=[[0,0.5],[1,0.5]];portConstraint=eastwest;whiteSpace=wrap;html=1;" vertex="1" parent="hCjjzOcsvKE_SeXPQG_O-11">
          <mxGeometry y="34" width="160" height="26" as="geometry" />
        </mxCell>
        <mxCell id="hCjjzOcsvKE_SeXPQG_O-16" value="ConcreateHandle1" style="swimlane;fontStyle=1;align=center;verticalAlign=top;childLayout=stackLayout;horizontal=1;startSize=26;horizontalStack=0;resizeParent=1;resizeParentMax=0;resizeLast=0;collapsible=1;marginBottom=0;whiteSpace=wrap;html=1;" vertex="1" parent="1">
          <mxGeometry x="540" y="240" width="160" height="60" as="geometry" />
        </mxCell>
        <mxCell id="hCjjzOcsvKE_SeXPQG_O-18" value="" style="line;strokeWidth=1;fillColor=none;align=left;verticalAlign=middle;spacingTop=-1;spacingLeft=3;spacingRight=3;rotatable=0;labelPosition=right;points=[];portConstraint=eastwest;strokeColor=inherit;" vertex="1" parent="hCjjzOcsvKE_SeXPQG_O-16">
          <mxGeometry y="26" width="160" height="8" as="geometry" />
        </mxCell>
        <mxCell id="hCjjzOcsvKE_SeXPQG_O-19" value="+ HandleRequest()" style="text;strokeColor=none;fillColor=none;align=left;verticalAlign=top;spacingLeft=4;spacingRight=4;overflow=hidden;rotatable=0;points=[[0,0.5],[1,0.5]];portConstraint=eastwest;whiteSpace=wrap;html=1;" vertex="1" parent="hCjjzOcsvKE_SeXPQG_O-16">
          <mxGeometry y="34" width="160" height="26" as="geometry" />
        </mxCell>
        <mxCell id="hCjjzOcsvKE_SeXPQG_O-20" value="" style="endArrow=open;endFill=1;endSize=12;html=1;rounded=0;" edge="1" parent="1">
          <mxGeometry width="160" relative="1" as="geometry">
            <mxPoint x="200" y="112.71" as="sourcePoint" />
            <mxPoint x="380" y="113" as="targetPoint" />
          </mxGeometry>
        </mxCell>
        <mxCell id="hCjjzOcsvKE_SeXPQG_O-21" value="" style="endArrow=block;endSize=16;endFill=0;html=1;rounded=0;entryX=0;entryY=0.5;entryDx=0;entryDy=0;exitX=0.5;exitY=0;exitDx=0;exitDy=0;" edge="1" parent="1" source="hCjjzOcsvKE_SeXPQG_O-7" target="hCjjzOcsvKE_SeXPQG_O-14">
          <mxGeometry width="160" relative="1" as="geometry">
            <mxPoint x="290" y="239.43" as="sourcePoint" />
            <mxPoint x="450" y="239.43" as="targetPoint" />
            <Array as="points">
              <mxPoint x="300" y="143" />
            </Array>
          </mxGeometry>
        </mxCell>
        <mxCell id="hCjjzOcsvKE_SeXPQG_O-22" value="" style="endArrow=block;endSize=16;endFill=0;html=1;rounded=0;entryX=1;entryY=0.5;entryDx=0;entryDy=0;exitX=0.5;exitY=0;exitDx=0;exitDy=0;" edge="1" parent="1" source="hCjjzOcsvKE_SeXPQG_O-16" target="hCjjzOcsvKE_SeXPQG_O-14">
          <mxGeometry width="160" relative="1" as="geometry">
            <mxPoint x="610" y="240" as="sourcePoint" />
            <mxPoint x="690" y="143" as="targetPoint" />
            <Array as="points">
              <mxPoint x="620" y="143" />
            </Array>
          </mxGeometry>
        </mxCell>
        <mxCell id="hCjjzOcsvKE_SeXPQG_O-23" value="1" style="endArrow=open;html=1;endSize=12;startArrow=diamondThin;startSize=14;startFill=0;edgeStyle=orthogonalEdgeStyle;align=left;verticalAlign=bottom;rounded=0;entryX=1;entryY=0.25;entryDx=0;entryDy=0;" edge="1" parent="1" target="hCjjzOcsvKE_SeXPQG_O-11">
          <mxGeometry x="-1" y="3" relative="1" as="geometry">
            <mxPoint x="700" y="269.71" as="sourcePoint" />
            <mxPoint x="760" y="100" as="targetPoint" />
            <Array as="points">
              <mxPoint x="770" y="270" />
              <mxPoint x="770" y="111" />
            </Array>
          </mxGeometry>
        </mxCell>
      </root>
    </mxGraphModel>
  </diagram>
</mxfile>
